<svg xmlns="http://www.w3.org/2000/svg" height="16" width="16">
    <path d="M15 8A7 7 0 111 8a7 7 0 0114 0" fill="#ff0789" fill-opacity=".6" fill-rule="evenodd"/>
    <g>
        <path d="M8.005 5.218q-1.003 0-1.595.747-.588.748-.588 2.037 0 1.285.588 2.033.592.747 1.595.747 1.002 0 1.585-.747.588-.748.588-2.033 0-1.29-.588-2.037-.583-.747-1.585-.747zm0-.748q1.43 0 2.287.962.857.957.857 2.57 0 1.609-.857 2.57-.856.958-2.287.958-1.436 0-2.297-.957-.857-.957-.857-2.57 0-1.614.857-2.571.861-.962 2.297-.962z"
              opacity=".7" fill="#ffffff"/>
    </g>
</svg>