<svg xmlns="http://www.w3.org/2000/svg" height="16" width="16">
    <path d="M15 8A7 7 0 111 8a7 7 0 0114 0" fill="#21fc0d" fill-opacity=".6" fill-rule="evenodd"/>
    <path d="M9.985 4.817v.898q-.524-.251-.99-.374-.464-.123-.897-.123-.752 0-1.162.291-.406.292-.406.83 0 .451.27.683.273.228 1.03.37l.555.114q1.03.195 1.518.692.492.492.492 1.322 0 .989-.666 1.5-.66.51-1.94.51-.484 0-1.03-.11-.543-.11-1.127-.323v-.948q.561.314 1.099.474.538.16 1.057.16.788 0 1.217-.31.428-.31.428-.885 0-.501-.31-.784-.305-.282-1.007-.423l-.56-.11q-1.03-.205-1.49-.642-.46-.438-.46-1.217 0-.903.633-1.422.638-.52 1.754-.52.479 0 .975.087.497.087 1.017.26z"
          fill="#fff" fill-opacity=".7"/>
</svg>